<svg id="Layer_1" data-name="Layer 1" xmlns="http://www.w3.org/2000/svg" xmlns:xlink="http://www.w3.org/1999/xlink" viewBox="0 0 80.5 80.5"><defs><style>.cls-1{fill:url(#linear-gradient);}.cls-2{fill:#ede5ce;}</style><linearGradient id="linear-gradient" y1="40.25" x2="80.5" y2="40.25" gradientUnits="userSpaceOnUse"><stop offset="0" stop-color="#3e6778"/><stop offset="0.17" stop-color="#507a86"/><stop offset="0.52" stop-color="#6f9ca0"/><stop offset="0.81" stop-color="#83b1af"/><stop offset="1" stop-color="#8ab9b5"/></linearGradient></defs><rect class="cls-1" width="80.5" height="80.5" rx="12"/><path class="cls-2" d="M40.53,40.49a22.16,22.16,0,0,1-1.13,7.35,15.2,15.2,0,0,1-3.19,5.4,13.27,13.27,0,0,1-4.92,3.32A17,17,0,0,1,25,57.69a17,17,0,0,1-6.32-1.13,13.27,13.27,0,0,1-4.92-3.32,15,15,0,0,1-3.18-5.4,21.9,21.9,0,0,1-1.14-7.35,21.92,21.92,0,0,1,1.14-7.36,15.12,15.12,0,0,1,3.18-5.4,13.27,13.27,0,0,1,4.92-3.32A17.24,17.24,0,0,1,25,23.28a17.24,17.24,0,0,1,6.32,1.13,13.27,13.27,0,0,1,4.92,3.32,15.29,15.29,0,0,1,3.19,5.4A22.18,22.18,0,0,1,40.53,40.49Zm-8.25,0a36.4,36.4,0,0,0-.69-7.76,17.4,17.4,0,0,0-1.74-4.93,6.84,6.84,0,0,0-2.36-2.59,4.61,4.61,0,0,0-5,0,6.84,6.84,0,0,0-2.36,2.59,17.4,17.4,0,0,0-1.74,4.93,36.4,36.4,0,0,0-.69,7.76,36.37,36.37,0,0,0,.69,7.75,17.4,17.4,0,0,0,1.74,4.93,6.84,6.84,0,0,0,2.36,2.59,4.61,4.61,0,0,0,5,0,6.84,6.84,0,0,0,2.36-2.59,17.4,17.4,0,0,0,1.74-4.93A36.37,36.37,0,0,0,32.28,40.49Z" transform="translate(-0.05 0)"/><path class="cls-2" d="M39.26,32.77l5.28,13.14,4.15-12.17-2.36-6a1.35,1.35,0,0,0-1.41-.9,3,3,0,0,0-1.34.36,5,5,0,0,0-1.4,1,3.89,3.89,0,0,1,.59-2.17,4.89,4.89,0,0,1,1.51-1.46,7,7,0,0,1,2-.83,9.94,9.94,0,0,1,2.17-.26,6.31,6.31,0,0,1,4.1,1.35,5.45,5.45,0,0,1,1.25,1.34,7.11,7.11,0,0,1,.78,1.56l7.12,18.15,6.79-20a2.36,2.36,0,0,0,.14-.66c0-.34-.26-.56-.78-.63a22.71,22.71,0,0,0-2.9-.12v-.71h8.72v.71a9.21,9.21,0,0,0-2.61.26A1.77,1.77,0,0,0,70,25.87L59.34,57H57.93L49.44,35.68,42.14,57H40.72L33.78,41" transform="translate(-0.05 0)"/></svg>